<svg width="24" height="24" viewBox="0 0 24 24" fill="none" xmlns="http://www.w3.org/2000/svg">
<path fill-rule="evenodd" clip-rule="evenodd" d="M2.29834 7.75C2.66585 4.92873 5.07842 2.75 7.99987 2.75H15.9999C18.9213 2.75 21.3339 4.92873 21.7014 7.75H2.29834ZM16.4999 1.25C16.0857 1.25 15.7499 1.58579 15.7499 2V5C15.7499 5.41421 16.0857 5.75 16.4999 5.75C16.9141 5.75 17.2499 5.41421 17.2499 5V2C17.2499 1.58579 16.9141 1.25 16.4999 1.25ZM7.49987 1.25C7.08566 1.25 6.74987 1.58579 6.74987 2V5C6.74987 5.41421 7.08566 5.75 7.49987 5.75C7.91408 5.75 8.24987 5.41421 8.24987 5V2C8.24987 1.58579 7.91408 1.25 7.49987 1.25Z" fill="#FF6600"/>
<path opacity="0.3" fill-rule="evenodd" clip-rule="evenodd" d="M2.25 9.25V16.5C2.25 19.6756 4.82436 22.25 8 22.25H16C19.1756 22.25 21.75 19.6756 21.75 16.5V9.25H2.25ZM6.5 13.25C6.08579 13.25 5.75 12.9142 5.75 12.5C5.75 12.0858 6.08579 11.75 6.5 11.75H7.5C7.91421 11.75 8.25 12.0858 8.25 12.5C8.25 12.9142 7.91421 13.25 7.5 13.25H6.5ZM10.75 12.5C10.75 12.9142 11.0858 13.25 11.5 13.25H12.5C12.9142 13.25 13.25 12.9142 13.25 12.5C13.25 12.0858 12.9142 11.75 12.5 11.75H11.5C11.0858 11.75 10.75 12.0858 10.75 12.5ZM15.75 12.5C15.75 12.9142 16.0858 13.25 16.5 13.25H17.5C17.9142 13.25 18.25 12.9142 18.25 12.5C18.25 12.0858 17.9142 11.75 17.5 11.75H16.5C16.0858 11.75 15.75 12.0858 15.75 12.5ZM5.75 16.5C5.75 16.9142 6.08579 17.25 6.5 17.25H7.5C7.91421 17.25 8.25 16.9142 8.25 16.5C8.25 16.0858 7.91421 15.75 7.5 15.75H6.5C6.08579 15.75 5.75 16.0858 5.75 16.5ZM10.75 16.5C10.75 16.9142 11.0858 17.25 11.5 17.25H12.5C12.9142 17.25 13.25 16.9142 13.25 16.5C13.25 16.0858 12.9142 15.75 12.5 15.75H11.5C11.0858 15.75 10.75 16.0858 10.75 16.5ZM15.75 16.5C15.75 16.9142 16.0858 17.25 16.5 17.25H17.5C17.9142 17.25 18.25 16.9142 18.25 16.5C18.25 16.0858 17.9142 15.75 17.5 15.75H16.5C16.0858 15.75 15.75 16.0858 15.75 16.5Z" fill="#FF6600"/>
</svg>
