<svg width="24" height="24" viewBox="0 0 24 24" fill="none" xmlns="http://www.w3.org/2000/svg">
<path d="M2 4C2 2.89543 2.89543 2 4 2H20C21.1046 2 22 2.89543 22 4V4.81751C22 5.57739 21.7116 6.30895 21.1932 6.86447L15.5379 12.9237C15.1922 13.294 15 13.7817 15 14.2883V18.382C15 18.7607 14.786 19.107 14.4472 19.2764L10.4472 21.2764C9.78231 21.6088 9 21.1253 9 20.382V14.2883C9 13.7817 8.80776 13.294 8.46211 12.9237L2.80683 6.86446C2.28836 6.30895 2 5.57739 2 4.81751V4Z" fill="#2B3F6C" stroke="#2B3F6C" stroke-width="1.5"/>
</svg>
