<svg width="24" height="24" viewBox="0 0 24 24" fill="none" xmlns="http://www.w3.org/2000/svg">
<path opacity="0.3" d="M3.25 6C3.25 3.37665 5.37665 1.25 8 1.25H16C18.6234 1.25 20.75 3.37665 20.75 6V18C20.75 20.6234 18.6234 22.75 16 22.75H8C5.37665 22.75 3.25 20.6234 3.25 18V6Z" fill="#FF6600"/>
<path d="M10.2933 9.05333H8.35333L8.02 10H7.22667L8.88667 5.36H9.76667L11.4267 10H10.6267L10.2933 9.05333ZM10.08 8.43333L9.32667 6.28L8.56667 8.43333H10.08ZM15.7284 7.91333H14.3818V9.29333H13.6751V7.91333H12.3284V7.27333H13.6751V5.89333H14.3818V7.27333H15.7284V7.91333Z" fill="#FF6600"/>
<path d="M8 14H16" stroke="#FF6600" stroke-width="1.5" stroke-linecap="round"/>
<path d="M8 18H13" stroke="#FF6600" stroke-width="1.5" stroke-linecap="round"/>
</svg>
