<svg width="24" height="24" viewBox="0 0 24 24" fill="none" xmlns="http://www.w3.org/2000/svg">
<path d="M11.1634 3.00242C8.49 1.99919 5.51 1.99919 2.83663 3.00242C1.90173 3.35326 1.25 4.22207 1.25 5.22907V19.0797C1.25 20.5946 2.83232 21.4932 4.16836 20.9918C5.98537 20.31 8.01463 20.31 9.83164 20.9918L11.7228 21.7015C11.8104 21.7344 11.905 21.7493 12 21.747V3.31638L11.1634 3.00242Z" fill="#FF6600"/>
<path opacity="0.3" d="M12 21.747C12.095 21.7493 12.1896 21.7344 12.2772 21.7015L14.1684 20.9918C15.9854 20.31 18.0146 20.31 19.8316 20.9918C21.1677 21.4932 22.75 20.5946 22.75 19.0797V5.22907C22.75 4.22207 22.0983 3.35326 21.1634 3.00242C18.49 1.99919 15.51 1.99919 12.8366 3.00242L12 3.31638V21.747Z" fill="#FF6600"/>
</svg>
