<svg width="24" height="24" viewBox="0 0 24 24" fill="none" xmlns="http://www.w3.org/2000/svg">
<path opacity="0.3" d="M3.25 6C3.25 3.37665 5.37665 1.25 8 1.25H16C18.6234 1.25 20.75 3.37665 20.75 6V18C20.75 20.6234 18.6234 22.75 16 22.75H8C5.37665 22.75 3.25 20.6234 3.25 18V6Z" fill="#FF6600"/>
<path d="M8 15H16" stroke="#FF6600" stroke-width="1.5" stroke-linecap="round"/>
<path d="M8 18H13" stroke="#FF6600" stroke-width="1.5" stroke-linecap="round"/>
<path fill-rule="evenodd" clip-rule="evenodd" d="M14.5249 4.32289C14.0945 3.89431 13.3969 3.89457 12.9667 4.32348L12.2667 5.02158L14.8889 7.63243L15.5898 6.91641C16.011 6.48606 16.0066 5.79815 15.5798 5.37322L14.5249 4.32289ZM14.3118 8.22191L11.6826 5.60403L8.53421 8.74353C8.24153 9.03538 8.06946 9.42608 8.05204 9.8383L8.00092 11.0485C7.98115 11.5164 8.3565 11.9065 8.82651 11.9065L10.0082 11.9066C10.4537 11.9066 10.8803 11.7274 11.1914 11.4096L14.3118 8.22191Z" fill="#FF6600"/>
</svg>
