<svg width="24" height="24" viewBox="0 0 24 24" fill="none" xmlns="http://www.w3.org/2000/svg">
<circle r="3" transform="matrix(-1 0 0 1 12 12)" stroke="#F46700" stroke-width="1.5"/>
<path d="M16.5001 4.9375L16.8751 4.28798V4.28798L16.5001 4.9375ZM16.5 19.0621L16.125 18.4126H16.125L16.5 19.0621ZM7.49999 19.0621L7.12499 19.7117H7.12499L7.49999 19.0621ZM7.49999 4.9375L7.87499 5.58702V5.58702L7.49999 4.9375ZM8.92293 3.01508L9.65362 3.18415L8.92293 3.01508ZM9.53914 2.30504L9.35515 1.57796L9.53914 2.30504ZM2.90639 9.68351L2.42947 10.2623L2.90639 9.68351ZM5.31183 18.7402L5.13965 18.0102L5.31183 18.7402ZM4.40294 18.503L3.83341 18.991L4.40294 18.503ZM9.53921 21.695L9.72319 20.9679L9.53921 21.695ZM8.92299 20.9848L9.6537 20.8158L8.92299 20.9848ZM15.077 20.9848L15.8077 21.1538L15.077 20.9848ZM14.4608 21.695L14.2768 20.9679L14.4608 21.695ZM19.597 18.503L19.0274 18.015L19.597 18.503ZM18.6881 18.7402L18.5159 19.4702L18.6881 18.7402ZM21.4437 8.70289L22.1517 8.45569L21.4437 8.70289ZM21.0935 9.68352L20.6166 9.10469L21.0935 9.68352ZM2.90639 14.3165L2.42947 13.7376L2.90639 14.3165ZM18.6879 5.2595L18.5158 4.52952L18.6879 5.2595ZM19.5967 5.49671L20.1662 5.00871L19.5967 5.49671ZM4.40321 5.49667L3.8337 5.00867L4.40321 5.49667ZM21.0935 14.3165L21.5704 13.7376L21.0935 14.3165ZM21.4437 15.2971L20.7356 15.0499L21.4437 15.2971ZM15.0771 3.01511L15.8078 2.84603L15.0771 3.01511ZM14.3464 3.18418C14.5722 4.16005 15.1878 5.04592 16.1251 5.58702L16.8751 4.28798C16.3127 3.96329 15.9438 3.43381 15.8078 2.84603L14.3464 3.18418ZM16.1251 5.58702C16.986 6.08408 17.9638 6.2008 18.8601 5.98949L18.5158 4.52952C17.9767 4.65663 17.3921 4.5865 16.8751 4.28798L16.1251 5.58702ZM22.1517 8.45569C21.7062 7.17937 21.0271 6.01337 20.1662 5.00871L19.0272 5.98471C19.7687 6.85004 20.3527 7.85328 20.7356 8.95008L22.1517 8.45569ZM20.7499 12C20.7499 11.3006 21.0681 10.6762 21.5704 10.2624L20.6166 9.10469C19.7833 9.79128 19.2499 10.8337 19.2499 12H20.7499ZM21.5704 13.7376C21.0681 13.3238 20.7499 12.6994 20.7499 12H19.2499C19.2499 13.1663 19.7833 14.2087 20.6166 14.8953L21.5704 13.7376ZM20.1665 18.991C21.0272 17.9864 21.7062 16.8205 22.1517 15.5443L20.7356 15.0499C20.3527 16.1466 19.7688 17.1497 19.0274 18.015L20.1665 18.991ZM16.875 19.7117C17.3921 19.4131 17.9767 19.343 18.5159 19.4702L18.8603 18.0102C17.9639 17.7988 16.986 17.9155 16.125 18.4126L16.875 19.7117ZM15.8077 21.1538C15.9437 20.566 16.3126 20.0364 16.875 19.7117L16.125 18.4126C15.1877 18.9538 14.572 19.8398 14.3463 20.8158L15.8077 21.1538ZM12 22.75C12.9117 22.75 13.7979 22.6363 14.6448 22.422L14.2768 20.9679C13.5492 21.152 12.7866 21.25 12 21.25V22.75ZM9.35524 22.4221C10.2021 22.6363 11.0883 22.75 12 22.75V21.25C11.2134 21.25 10.4508 21.152 9.72319 20.9679L9.35524 22.4221ZM7.12499 19.7117C7.68743 20.0364 8.05631 20.566 8.19227 21.1538L9.6537 20.8158C9.42796 19.8398 8.81232 18.9538 7.87499 18.4126L7.12499 19.7117ZM5.484 19.4702C6.02321 19.343 6.60787 19.4131 7.12499 19.7117L7.87499 18.4126C7.01395 17.9155 6.036 17.7988 5.13965 18.0102L5.484 19.4702ZM1.84816 15.5443C2.29368 16.8205 2.97267 17.9864 3.83341 18.991L4.97248 18.015C4.23112 17.1498 3.6472 16.1466 3.26434 15.0499L1.84816 15.5443ZM3.24998 12C3.24998 12.6994 2.93179 13.3238 2.42947 13.7376L3.3833 14.8953C4.21662 14.2087 4.74998 13.1663 4.74998 12H3.24998ZM2.42947 10.2623C2.93179 10.6762 3.24998 11.3006 3.24998 12H4.74998C4.74998 10.8337 4.21662 9.79126 3.3833 9.10468L2.42947 10.2623ZM3.8337 5.00867C2.97282 6.01334 2.29373 7.17934 1.84816 8.45567L3.26434 8.95007C3.64724 7.85326 4.23126 6.85001 4.97273 5.98468L3.8337 5.00867ZM7.12499 4.28798C6.60792 4.58651 6.02331 4.65664 5.48414 4.5295L5.13988 5.98946C6.03617 6.20081 7.01403 6.0841 7.87499 5.58702L7.12499 4.28798ZM8.19223 2.84601C8.05623 3.43379 7.68737 3.96329 7.12499 4.28798L7.87499 5.58702C8.81221 5.04591 9.42782 4.16003 9.65362 3.18415L8.19223 2.84601ZM12 1.25C11.0883 1.25 10.202 1.36366 9.35515 1.57796L9.72312 3.03213C10.4507 2.84802 11.2133 2.75 12 2.75V1.25ZM14.6449 1.578C13.798 1.36368 12.9117 1.25 12 1.25V2.75C12.7866 2.75 13.5493 2.84803 14.2769 3.03217L14.6449 1.578ZM9.65362 3.18415C9.66923 3.11668 9.69568 3.06909 9.7162 3.04413C9.73383 3.02269 9.73697 3.02862 9.72312 3.03213L9.35515 1.57796C8.66395 1.75286 8.30705 2.3498 8.19223 2.84601L9.65362 3.18415ZM3.3833 9.10468C3.32242 9.05451 3.28703 9.00024 3.27283 8.96394C3.26089 8.93341 3.26968 8.93478 3.26434 8.95007L1.84816 8.45567C1.58215 9.21766 1.9943 9.9038 2.42947 10.2623L3.3833 9.10468ZM5.13965 18.0102C5.07242 18.0261 5.01815 18.0235 4.98669 18.0162C4.95963 18.0099 4.96335 18.0044 4.97248 18.015L3.83341 18.991C4.29646 19.5314 4.98843 19.5871 5.484 19.4702L5.13965 18.0102ZM9.72319 20.9679C9.73705 20.9714 9.7339 20.9773 9.71628 20.9559C9.69575 20.9309 9.6693 20.8833 9.6537 20.8158L8.19227 21.1538C8.30705 21.6501 8.66396 22.2471 9.35524 22.4221L9.72319 20.9679ZM14.3463 20.8158C14.3307 20.8833 14.3042 20.9309 14.2837 20.9559C14.2661 20.9773 14.263 20.9714 14.2768 20.9679L14.6448 22.422C15.336 22.2471 15.6929 21.6501 15.8077 21.1538L14.3463 20.8158ZM19.0274 18.015C19.0366 18.0044 19.0403 18.0099 19.0132 18.0162C18.9818 18.0235 18.9275 18.0261 18.8603 18.0102L18.5159 19.4702C19.0115 19.5871 19.7035 19.5314 20.1665 18.991L19.0274 18.015ZM20.7356 8.95008C20.7302 8.93479 20.739 8.93343 20.7271 8.96395C20.7129 9.00025 20.6775 9.05452 20.6166 9.10469L21.5704 10.2624C22.0056 9.90381 22.4178 9.21767 22.1517 8.45569L20.7356 8.95008ZM3.26434 15.0499C3.26968 15.0652 3.26089 15.0666 3.27283 15.0361C3.28703 14.9998 3.32242 14.9455 3.3833 14.8953L2.42947 13.7376C1.9943 14.0962 1.58215 14.7823 1.84816 15.5443L3.26434 15.0499ZM18.8601 5.98949C18.9273 5.97364 18.9815 5.97624 19.013 5.98357C19.04 5.98987 19.0363 5.99537 19.0272 5.98471L20.1662 5.00871C19.7032 4.46835 19.0114 4.41269 18.5158 4.52952L18.8601 5.98949ZM4.97273 5.98468C4.9636 5.99534 4.95988 5.98984 4.98693 5.98354C5.01839 5.97621 5.07265 5.97361 5.13988 5.98946L5.48414 4.5295C4.98861 4.41265 4.29672 4.4683 3.8337 5.00867L4.97273 5.98468ZM20.6166 14.8953C20.6775 14.9455 20.7129 14.9997 20.7271 15.036C20.739 15.0666 20.7302 15.0652 20.7356 15.0499L22.1517 15.5443C22.4178 14.7823 22.0056 14.0962 21.5704 13.7376L20.6166 14.8953ZM15.8078 2.84603C15.693 2.34983 15.3361 1.75292 14.6449 1.578L14.2769 3.03217C14.2631 3.02866 14.2662 3.02273 14.2838 3.04417C14.3044 3.06913 14.3308 3.11672 14.3464 3.18418L15.8078 2.84603Z" fill="#F46700"/>
</svg>
